<svg width="32" height="32" viewBox="0 0 32 32" fill="none" xmlns="http://www.w3.org/2000/svg">
  <path d="M16 32C24.8366 32 32 24.8366 32 16C32 7.16344 24.8366 0 16 0C7.16344 0 0 7.16344 0 16C0 24.8366 7.16344 32 16 32Z" fill="#FF4500"/>
  <path d="M24 15.5C24 14.1193 22.8807 13 21.5 13C20.8 13 20.1591 13.2898 19.7 13.75C18.1591 12.6989 16.2 12.0682 14.1 12.0114L15.2 8L18.8 8.75C18.8 9.85114 19.7 10.75 20.8 10.75C21.9 10.75 22.8 9.85114 22.8 8.75C22.8 7.64886 21.9 6.75 20.8 6.75C20.0591 6.75 19.4 7.18182 19.1 7.75L14.8 6.86364C14.6591 6.80682 14.4591 6.92045 14.4 7.0625L13.1 12.0114C10.9409 12.0682 8.98182 12.6989 7.44091 13.75C6.98182 13.2898 6.34091 13 5.64091 13C4.26023 13 3.14091 14.1193 3.14091 15.5C3.14091 16.4205 3.64091 17.2273 4.38182 17.6591C4.32386 17.9375 4.29545 18.2159 4.29545 18.5C4.29545 21.5398 9.52273 24 15.8636 24C22.2045 24 27.4318 21.5398 27.4318 18.5C27.4318 18.2159 27.4034 17.9375 27.3455 17.6591C28.0864 17.2273 28.5864 16.4205 28.5864 15.5H24ZM11.2 16.75C11.2 15.6489 12.1 14.75 13.2 14.75C14.3 14.75 15.2 15.6489 15.2 16.75C15.2 17.8511 14.3 18.75 13.2 18.75C12.1 18.75 11.2 17.8511 11.2 16.75ZM18.6 21.0625C17.3409 22.3239 14.3818 22.3807 13.8818 22.3807C13.3818 22.3807 10.4227 22.3239 9.16364 21.0625C8.96364 20.8625 8.96364 20.5284 9.16364 20.3284C9.36364 20.1284 9.69773 20.1284 9.89773 20.3284C10.7386 21.1693 12.9386 21.3409 13.8818 21.3409C14.825 21.3409 17.025 21.1693 17.8659 20.3284C18.0659 20.1284 18.4 20.1284 18.6 20.3284C18.7909 20.5284 18.7909 20.8625 18.6 21.0625ZM18.4 18.75C17.3 18.75 16.4 17.8511 16.4 16.75C16.4 15.6489 17.3 14.75 18.4 14.75C19.5 14.75 20.4 15.6489 20.4 16.75C20.4 17.8511 19.5 18.75 18.4 18.75Z" fill="white"/>
</svg> 